<?xml version="1.0" standalone="no"?>
<!DOCTYPE svg PUBLIC "-//W3C//DTD SVG 20010904//EN"
 "http://www.w3.org/TR/2001/REC-SVG-20010904/DTD/svg10.dtd">
<svg version="1.0" xmlns="http://www.w3.org/2000/svg"
 width="1024.000000pt" height="1024.000000pt" viewBox="0 0 1024.000000 1024.000000"
 preserveAspectRatio="xMidYMid meet">

<g transform="translate(0.000000,1024.000000) scale(0.100000,-0.100000)"
fill="#000000" stroke="none">
<path d="M2724 8813 c-59 -6 -86 -38 -92 -107 -6 -69 13 -149 45 -186 18 -22
47 -36 110 -55 96 -30 180 -78 210 -121 11 -16 30 -55 42 -87 20 -56 21 -73
24 -612 l2 -554 -38 -7 c-65 -10 -194 -81 -250 -137 -81 -80 -137 -213 -137
-327 0 -205 149 -393 372 -469 l52 -18 0 -949 -1 -949 -22 -56 c-30 -78 -86
-130 -211 -194 -145 -74 -186 -106 -199 -152 -23 -83 -6 -164 42 -196 23 -15
116 -16 1090 -17 586 -1 1070 1 1075 4 36 22 55 151 31 213 -15 40 -56 80
-119 116 -83 47 -162 131 -191 202 l-24 60 -3 948 -2 947 575 2 c316 1 583 2
593 2 16 1 17 -19 20 -269 l2 -271 -110 -54 c-60 -30 -112 -61 -115 -68 -8
-23 31 -100 114 -222 123 -181 111 -118 111 -603 0 -491 -1 -499 -78 -576 -26
-26 -76 -63 -112 -82 -124 -66 -160 -120 -160 -242 0 -49 4 -62 24 -80 23 -21
31 -21 442 -23 231 0 708 -2 1061 -4 714 -3 661 -8 695 68 17 37 18 50 8 95
-19 94 -47 122 -197 196 -113 56 -151 92 -197 191 l-30 65 -9 308 c-9 278 -8
309 7 326 22 24 20 35 -10 86 -21 37 -23 47 -13 66 8 16 13 175 18 562 l6 539
72 23 c164 52 278 154 340 308 74 182 39 348 -105 495 -80 82 -153 125 -250
149 l-72 17 6 515 c7 552 10 592 59 677 29 50 93 109 139 128 19 8 60 20 92
26 112 24 128 41 146 168 13 93 -1 140 -54 172 -33 20 -47 20 -1080 20 l-1046
0 -27 -32 c-27 -32 -27 -35 -22 -125 8 -132 23 -159 111 -194 113 -45 181
-112 216 -212 19 -54 20 -82 20 -607 l0 -550 -595 0 -595 0 0 530 c0 353 4
547 11 582 25 115 93 204 188 245 113 48 124 56 138 98 19 57 19 164 0 201
-35 67 23 64 -1094 62 -554 -1 -1027 -3 -1049 -5z m1801 -202 l70 -6 -33 -14
c-43 -18 -141 -126 -175 -193 -61 -123 -62 -129 -62 -740 l0 -558 -522 0
c-288 0 -526 0 -530 0 -5 0 -8 258 -8 573 0 565 0 573 -22 638 -45 131 -138
225 -276 280 l-72 28 780 -1 c429 0 812 -3 850 -7z m2734 2 l55 -6 -49 -15
c-147 -42 -246 -174 -291 -386 -11 -53 -17 -172 -21 -479 -5 -361 -8 -406 -21
-385 -21 35 -94 87 -154 110 -158 61 -207 71 -353 72 -89 1 -160 -4 -195 -13
-73 -18 -191 -72 -251 -116 -27 -19 -51 -35 -54 -35 -2 0 -6 210 -7 468 l-3
467 -36 76 c-46 95 -115 165 -210 213 l-72 36 804 0 c442 0 828 -3 858 -7z
m-646 -1302 c337 -171 444 -485 275 -803 -73 -138 -198 -226 -371 -263 -231
-50 -485 66 -576 264 -52 113 -74 220 -68 326 15 261 165 444 412 501 38 9 98
12 163 10 92 -4 111 -7 165 -35z m687 -468 c129 -116 127 -329 -5 -437 -62
-52 -129 -78 -207 -84 -38 -3 -68 -2 -68 1 0 3 14 20 31 38 36 39 79 121 110
210 18 54 21 85 21 200 l-1 137 36 -11 c19 -6 57 -30 83 -54z m-1635 -28 c-12
-143 30 -310 107 -425 22 -34 37 -64 34 -68 -4 -3 -615 -6 -1359 -7 l-1352 0
-59 29 c-149 73 -221 213 -181 352 13 47 27 69 70 111 98 95 -16 88 1459 88
l1287 0 -6 -80z m525 -742 c168 -47 350 -41 514 17 50 17 112 31 162 34 l81 6
6 -187 c10 -282 9 -773 -2 -773 -18 0 -18 0 -273 337 -51 67 -127 169 -168
225 -100 138 -157 198 -178 191 -9 -3 -31 -16 -49 -29 -39 -29 -342 -184 -359
-184 -10 0 -12 40 -8 193 3 105 7 198 10 205 3 9 12 5 31 -13 35 -33 83 -59
83 -45 0 5 -4 10 -10 10 -5 0 -7 6 -4 14 3 8 -2 26 -12 41 l-17 26 54 -22 c30
-12 92 -33 139 -46z m-1865 -34 c4 -38 5 -73 1 -76 -3 -3 -242 -8 -531 -11
l-525 -5 0 84 0 84 524 -3 524 -2 7 -71z m-8 -223 c2 -2 5 -1123 4 -1197 -1
-39 -36 -49 -166 -49 l-115 0 0 59 0 58 46 7 c26 3 60 6 76 6 28 0 29 2 26 38
l-3 37 -75 5 c-83 6 -88 11 -76 75 7 33 7 33 79 42 l72 8 3 42 c3 39 1 43 -23
49 -15 4 -54 4 -86 0 l-60 -6 3 62 c3 71 5 72 110 83 50 6 59 10 64 30 15 61
-15 76 -126 64 -30 -3 -61 -4 -67 -1 -9 3 -13 25 -13 62 0 66 -7 62 132 76 60
6 66 8 71 31 11 60 -17 78 -116 71 -42 -2 -51 0 -49 12 2 8 6 36 9 61 6 52 15
58 88 59 55 0 67 11 63 51 l-3 34 -72 8 -71 9 4 36 c11 77 13 81 47 85 28 4
218 -3 224 -7z m-446 0 c2 -2 2 -32 1 -65 l-4 -61 -231 -2 -232 -3 -3 -36 c-5
-60 1 -61 247 -57 l220 3 5 -29 c3 -16 6 -38 6 -50 0 -48 -5 -48 -246 -55
l-229 -6 0 -45 0 -45 232 -3 232 -2 7 -37 c4 -20 3 -48 -2 -62 l-9 -26 -230
-5 -230 -5 0 -45 0 -45 230 0 229 0 8 -40 c5 -22 7 -51 6 -65 l-3 -25 -235 -5
-235 -5 -3 -42 -3 -43 159 0 c87 0 193 -3 234 -6 76 -7 76 -7 81 -38 3 -18 3
-43 0 -56 l-4 -25 -232 0 -232 0 -3 -41 -3 -41 143 -7 c79 -3 185 -4 236 -1
104 5 98 10 86 -79 l-7 -46 -286 6 c-157 4 -289 9 -293 13 -4 4 -9 282 -10
619 l-3 612 301 0 c165 0 303 -2 305 -4z m2544 -176 c41 -52 154 -205 251
-340 97 -135 208 -277 247 -317 39 -40 69 -75 66 -77 -33 -34 -509 -321 -638
-386 l-84 -42 -19 24 c-61 77 -335 500 -421 649 -30 53 -76 128 -103 168 -26
39 -45 73 -42 76 8 8 277 167 388 229 58 33 139 78 180 102 68 39 76 41 88 26
7 -9 46 -59 87 -112z m-475 -941 c0 -6 36 -57 80 -114 44 -56 101 -138 128
-181 33 -54 55 -80 69 -82 18 -3 384 184 428 218 8 6 281 147 307 158 5 2 8
-99 8 -225 0 -260 9 -315 67 -425 41 -79 104 -140 187 -181 31 -16 56 -30 56
-32 0 -2 -348 -4 -772 -4 -425 -1 -790 -4 -810 -8 -21 -3 -38 -3 -38 0 0 3 27
22 59 41 75 46 115 92 157 180 46 97 54 164 54 439 0 156 3 236 10 232 6 -3
10 -11 10 -16z m-2270 -299 c0 -55 -6 -61 -84 -76 l-37 -6 6 53 c10 80 9 79
65 79 l50 0 0 -50z m-228 -130 c-2 -106 0 -170 6 -170 6 0 33 19 62 43 76 62
111 87 125 87 7 0 25 -24 39 -54 15 -30 33 -57 42 -60 8 -3 31 1 51 9 l35 15
-7 150 -7 150 153 0 c85 0 205 -3 267 -7 l112 -6 0 -86 c0 -130 16 -217 54
-296 42 -87 84 -135 160 -180 l60 -35 -780 -1 c-428 0 -805 -4 -836 -8 -68 -8
-65 2 8 34 87 39 173 128 222 232 44 94 62 175 62 286 l0 67 88 0 87 0 -3
-170z"/>
<path d="M4001 8242 l-94 -3 6 -179 7 -180 -125 0 -125 0 0 180 0 180 -89 0
-89 0 -4 -122 c-2 -68 -2 -270 0 -450 l5 -328 89 0 89 0 -3 180 -3 180 128 0
127 0 0 -177 0 -178 95 -1 95 -1 -1 271 c-1 149 -4 352 -8 451 l-6 180 -94 -3z"/>
<path d="M6213 8032 c-49 -5 -76 -56 -57 -106 8 -20 75 -38 111 -30 43 10 53
23 53 69 0 58 -26 75 -107 67z"/>
<path d="M6542 8028 c-13 -13 -16 -85 -6 -112 5 -12 20 -16 59 -16 62 0 80 15
80 70 0 53 -18 70 -74 70 -26 0 -52 -5 -59 -12z"/>
<path d="M6234 7112 l-82 -3 5 -312 c2 -172 6 -323 9 -336 5 -23 7 -23 82 -18
42 4 78 6 80 7 1 0 2 53 2 119 l0 118 53 7 c28 3 73 6 100 6 l47 0 0 -134 0
-135 90 -3 c86 -3 90 -2 83 17 -4 11 -6 167 -6 348 l1 327 -84 0 -84 0 0 -125
0 -125 -82 0 c-46 0 -93 -3 -105 -6 l-23 -6 7 124 c3 71 2 127 -3 129 -5 2
-46 3 -90 1z"/>
<path d="M6540 6350 c-20 -6 -21 -8 -5 -8 11 0 29 3 40 8 25 11 -1 11 -35 0z"/>
<path d="M3325 6663 c-20 -19 -16 -92 5 -118 16 -19 119 -21 143 -2 26 19 27
95 1 121 -22 23 -127 22 -149 -1z"/>
<path d="M3638 6670 c-21 -13 -32 -78 -19 -113 10 -26 13 -27 89 -27 92 0 112
13 112 73 0 57 -27 77 -102 77 -35 0 -70 -5 -80 -10z"/>
<path d="M3966 6667 c-9 -7 -20 -32 -23 -55 -9 -64 12 -82 97 -82 85 0 106 18
97 82 -7 54 -27 68 -97 68 -31 0 -64 -6 -74 -13z"/>
<path d="M4290 6665 c-7 -8 -15 -34 -17 -58 -7 -58 17 -79 91 -81 71 -1 96 20
96 80 0 33 -5 46 -22 58 -30 21 -131 22 -148 1z"/>
<path d="M4616 6667 c-9 -7 -20 -31 -23 -54 -7 -56 16 -78 92 -87 83 -10 105
7 105 79 0 43 -4 56 -19 65 -28 14 -134 13 -155 -3z"/>
<path d="M4995 6671 c-53 -5 -61 -9 -73 -34 -26 -55 5 -106 66 -109 109 -5
132 8 132 78 0 62 -23 74 -125 65z"/>
<path d="M3087 6658 c-9 -7 -20 -27 -23 -44 -9 -49 23 -76 84 -72 43 3 49 6
67 40 l20 37 -24 25 c-19 20 -34 26 -66 26 -23 0 -49 -6 -58 -12z"/>
<path d="M5287 6663 c-37 -10 -48 -82 -17 -113 16 -16 33 -20 94 -20 69 0 76
2 95 26 50 63 7 115 -93 113 -33 -1 -69 -3 -79 -6z"/>
<path d="M4120 6051 c0 -6 4 -13 10 -16 6 -3 7 1 4 9 -7 18 -14 21 -14 7z"/>
<path d="M4005 5309 c-4 -6 -5 -12 -2 -15 2 -3 7 2 10 11 7 17 1 20 -8 4z"/>
<path d="M6235 5511 c-50 -32 -146 -90 -215 -128 -134 -74 -147 -89 -111 -134
l19 -24 47 23 c102 49 405 239 405 253 0 20 -31 69 -43 69 -7 0 -53 -26 -102
-59z"/>
<path d="M6380 5394 c-25 -15 -79 -48 -120 -74 -41 -26 -117 -69 -168 -95 -51
-26 -101 -59 -110 -73 -14 -22 -14 -27 -1 -51 8 -14 24 -27 35 -29 25 -4 393
212 447 262 24 22 25 28 16 55 -14 39 -38 40 -99 5z"/>
<path d="M6345 5164 c-99 -63 -204 -126 -232 -139 -29 -14 -53 -31 -53 -38 0
-21 30 -57 47 -57 33 0 463 239 491 273 16 19 -23 77 -51 76 -12 0 -103 -52
-202 -115z"/>
<path d="M6589 5092 c-81 -51 -353 -200 -396 -217 -24 -10 -43 -21 -43 -25 0
-16 52 -70 67 -70 23 0 427 219 492 266 9 7 -43 74 -58 74 -9 0 -37 -13 -62
-28z"/>
<path d="M6773 3950 c0 -30 2 -43 4 -27 2 15 2 39 0 55 -2 15 -4 2 -4 -28z"/>
<path d="M4016 4258 c-27 -15 -19 -52 21 -91 20 -20 42 -37 50 -37 17 0 18 90
1 112 -17 20 -51 28 -72 16z"/>
<path d="M4972 8374 c-61 -30 -114 -88 -130 -143 -22 -71 -15 -159 16 -226 48
-100 101 -149 185 -169 l27 -6 0 -179 c0 -211 19 -190 -174 -190 -84 -1 -133
-5 -143 -12 -9 -8 -13 -27 -11 -53 l3 -41 171 -3 c137 -2 174 -5 184 -17 17
-21 46 -19 70 5 19 19 31 21 161 19 113 -2 142 0 150 12 13 21 11 77 -3 86 -7
4 -75 10 -150 13 l-138 5 -2 179 -2 180 44 23 c63 33 126 99 157 161 22 45 25
62 21 115 -7 79 -43 152 -102 204 -56 49 -101 63 -203 63 -65 0 -88 -5 -131
-26z m225 -95 c119 -58 132 -233 22 -307 l-34 -23 -3 63 c-4 102 -7 108 -51
108 -35 0 -39 -3 -45 -31 -3 -17 -6 -60 -6 -96 l0 -64 -29 15 c-39 21 -87 77
-101 121 -16 49 -8 130 17 163 26 37 99 72 147 72 22 0 59 -9 83 -21z"/>
<path d="M2384 8370 c-142 -30 -254 -138 -305 -295 -20 -59 -21 -74 -12 -134
22 -144 118 -274 248 -336 l72 -35 1 -522 c0 -326 4 -533 11 -550 13 -35 47
-45 72 -22 18 16 19 34 19 358 0 188 3 432 7 544 l6 202 35 0 c115 0 252 139
293 297 53 204 -43 404 -229 476 -51 20 -162 29 -218 17z m199 -143 c129 -76
178 -232 116 -367 -36 -76 -68 -111 -138 -149 l-61 -32 0 48 c0 26 5 97 11
157 13 126 13 126 -69 126 l-54 0 3 -82 c2 -46 2 -116 1 -156 l-2 -72 -39 20
c-71 36 -140 141 -156 237 -18 113 78 256 196 292 54 17 143 6 192 -22z"/>
<path d="M7651 8234 c-215 -58 -340 -263 -302 -495 24 -153 123 -288 258 -352
64 -30 74 -32 183 -32 112 0 117 1 193 37 193 92 289 271 260 482 -6 41 -21
97 -34 123 -31 65 -142 174 -209 206 -98 48 -241 60 -349 31z m225 -120 c142
-48 225 -152 240 -302 12 -113 -67 -241 -183 -298 -46 -22 -72 -28 -128 -28
-143 -1 -229 49 -290 169 -38 73 -40 83 -40 164 0 72 4 94 25 135 31 61 116
139 172 159 57 20 146 21 204 1z"/>
<path d="M7695 7994 c-68 -35 -115 -105 -115 -171 0 -76 84 -203 134 -203 48
0 42 44 -15 101 -40 40 -13 169 36 169 22 0 34 -62 23 -115 -9 -41 -8 -49 10
-68 25 -26 117 -35 163 -17 49 21 75 116 50 183 -16 40 -73 99 -116 118 -49
23 -130 24 -170 3z m183 -183 c3 -16 -1 -22 -10 -19 -7 3 -15 15 -16 27 -3 16
1 22 10 19 7 -3 15 -15 16 -27z"/>
<path d="M7789 7073 c-17 -20 -17 -97 1 -118 16 -19 103 -21 118 -2 6 7 14 31
18 54 5 34 2 45 -15 62 -27 27 -102 29 -122 4z"/>
<path d="M8060 7077 c-21 -10 -26 -21 -28 -62 -4 -60 11 -75 75 -75 47 0 65
18 78 76 5 27 2 35 -21 53 -30 24 -67 27 -104 8z"/>
<path d="M7796 6764 c-20 -20 -21 -97 -2 -113 26 -21 83 -25 111 -7 21 14 25
24 25 66 0 39 -4 52 -19 60 -30 15 -97 12 -115 -6z"/>
<path d="M8050 6744 c-13 -33 -13 -50 1 -77 16 -30 28 -37 69 -37 41 0 53 7
69 37 31 59 -3 103 -79 103 -45 0 -52 -3 -60 -26z"/>
<path d="M7784 6455 c-19 -30 -14 -90 11 -114 9 -9 33 -16 56 -16 51 0 79 30
79 85 0 50 -24 70 -83 70 -39 0 -49 -4 -63 -25z"/>
<path d="M8051 6466 c-16 -20 -10 -98 10 -122 18 -22 107 -14 126 12 18 25 17
89 -3 105 -25 20 -117 24 -133 5z"/>
<path d="M2406 6139 c-84 -20 -198 -105 -233 -173 -46 -89 -46 -90 -44 -511 1
-220 4 -408 7 -418 13 -43 46 -47 362 -47 l299 0 27 25 26 24 0 390 c0 243 -4
409 -11 441 -23 105 -126 216 -239 255 -58 20 -145 27 -194 14z m190 -144
c132 -78 177 -291 82 -393 -29 -30 -94 -67 -145 -82 -38 -12 -48 -10 -105 11
-83 31 -161 105 -178 169 -16 59 -7 131 25 196 59 121 206 166 321 99z m-171
-596 c22 -6 61 -9 86 -6 58 7 156 50 192 84 l27 27 0 -202 0 -202 -240 0 -240
0 0 200 0 200 67 -45 c37 -25 85 -50 108 -56z"/>
<path d="M7723 6103 l-143 -4 0 -98 0 -99 -68 -4 c-79 -4 -120 -28 -146 -83
-16 -32 -17 -86 -14 -563 3 -597 -1 -568 86 -623 l46 -29 313 0 c291 0 317 1
352 19 50 26 98 82 106 123 3 18 5 231 3 473 l-3 440 -27 47 c-16 25 -67 81
-114 122 -71 62 -93 76 -120 76 l-34 0 0 99 0 99 -31 6 c-17 3 -39 5 -48 4 -9
-1 -80 -4 -158 -5z m135 -248 c-2 -74 -7 -137 -9 -139 -2 -3 -39 -8 -82 -12
l-77 -7 0 147 0 146 86 0 87 0 -5 -135z m-268 -154 c0 -65 15 -174 26 -190 4
-5 84 42 84 50 0 11 69 29 112 29 33 0 41 -5 63 -40 30 -47 45 -56 74 -41 13
8 22 26 27 56 l6 46 62 -6 c33 -4 67 -8 74 -10 9 -4 12 -97 12 -421 0 -374 -2
-419 -17 -436 -15 -17 -38 -18 -310 -18 l-293 0 -20 33 c-19 31 -20 51 -20
530 l0 497 60 0 60 0 0 -79z m442 6 l41 -52 -54 -6 c-30 -3 -54 -5 -55 -5 -7
6 11 124 18 120 5 -3 27 -29 50 -57z"/>
<path d="M7587 5343 c-4 -3 -7 -26 -7 -49 l0 -43 199 -3 c109 -2 205 -2 215 0
12 3 16 14 16 46 0 42 -1 44 -37 50 -51 8 -378 8 -386 -1z"/>
<path d="M7723 5133 l-143 -4 -6 -26 c-13 -50 3 -58 122 -61 60 -1 156 1 214
5 l105 8 3 28 c6 46 -12 57 -87 55 -36 -1 -130 -4 -208 -5z"/>
<path d="M7584 4937 c-3 -9 -4 -28 -2 -44 l3 -28 213 -3 213 -2 -3 42 -3 43
-208 3 c-176 3 -208 1 -213 -11z"/>
<path d="M5045 5941 c-47 -12 -87 -36 -125 -76 l-35 -36 -3 -767 c-2 -554 0
-786 8 -837 12 -66 51 -190 118 -371 43 -115 73 -175 90 -182 37 -14 99 118
164 349 l40 144 -1 755 c-2 776 -4 877 -26 920 -15 28 -60 72 -90 88 -29 15
-105 22 -140 13z m115 -188 l0 -48 -75 -1 -75 -1 0 36 c0 51 14 61 87 61 l63
0 0 -47z m-17 -169 l37 -7 0 -131 c0 -72 -3 -195 -7 -273 l-6 -143 -84 0 -83
0 0 274 0 275 33 4 c56 7 71 7 110 1z m29 -806 c2 -79 2 -241 0 -360 l-4 -217
-54 -7 c-105 -13 -100 -23 -107 202 -4 109 -7 268 -7 355 l0 158 73 4 c39 1
77 4 83 5 8 1 13 -43 16 -140z m-17 -740 c-4 -13 -14 -49 -23 -80 -9 -32 -19
-58 -23 -58 -5 0 -49 138 -49 154 0 3 23 6 51 6 49 0 51 -1 44 -22z"/>
<path d="M2427 4823 c-41 -6 -148 -83 -179 -128 -62 -90 -60 -198 3 -297 37
-57 115 -120 174 -139 146 -47 301 28 366 177 44 99 6 230 -92 318 -71 64
-159 86 -272 69z m170 -149 c39 -29 83 -110 83 -152 0 -44 -41 -112 -80 -134
-27 -15 -50 -18 -98 -16 -56 4 -66 8 -101 42 -37 36 -61 89 -61 136 0 38 32
91 73 121 55 40 134 41 184 3z"/>
<path d="M2474 4555 c-4 -9 0 -23 9 -32 21 -21 49 -9 45 19 -4 28 -45 38 -54
13z"/>
<path d="M7725 4422 c-76 -36 -145 -137 -145 -212 0 -104 105 -217 218 -235
149 -24 292 136 253 281 -15 58 -62 118 -116 150 -62 36 -153 43 -210 16z
m172 -147 c32 -32 35 -39 30 -78 -7 -48 -52 -97 -90 -97 -37 0 -101 43 -119
79 -15 30 -15 37 -3 62 23 43 63 69 107 69 32 0 47 -7 75 -35z"/>
<path d="M2050 3073 c0 -6 9 -18 20 -28 12 -10 29 -33 40 -50 19 -31 20 -51
15 -713 -4 -719 -4 -714 -49 -751 -9 -8 -16 -16 -16 -20 0 -3 94 -6 210 -6
115 0 210 3 210 8 0 4 -11 24 -24 45 -23 35 -24 47 -28 218 l-3 181 94 98 94
99 21 -26 c12 -14 55 -74 96 -133 41 -59 119 -169 172 -244 53 -75 112 -161
129 -191 l33 -55 207 0 c194 0 206 1 198 18 -5 9 -14 17 -19 17 -15 0 -126
143 -206 266 -70 109 -380 526 -424 572 l-22 24 39 41 c22 23 79 89 128 147
220 259 372 420 433 460 21 14 5 15 -185 15 -114 0 -220 4 -235 9 -25 7 -28 6
-28 -13 0 -13 -56 -90 -137 -190 -189 -230 -277 -343 -358 -458 -9 -13 -19
-23 -23 -23 -8 0 -6 222 4 449 l6 143 36 40 c43 47 34 61 -30 47 -52 -11 -340
-7 -375 6 -14 4 -23 3 -23 -2z"/>
<path d="M3910 3069 c0 -6 16 -29 35 -50 l35 -39 0 -699 0 -698 -25 -37 c-33
-49 -32 -57 8 -45 18 5 247 9 532 9 275 0 504 0 508 0 5 0 -1 13 -12 29 -18
25 -21 44 -21 146 0 108 -1 116 -17 109 -10 -5 -164 -11 -342 -14 l-324 -5 7
110 c3 61 6 152 6 204 l0 94 118 -7 c64 -3 188 -6 274 -7 l157 -1 4 145 4 146
-24 -10 c-13 -5 -140 -9 -281 -9 l-257 0 0 175 0 176 320 -3 c176 -2 326 -5
333 -8 10 -4 13 23 15 120 1 74 7 134 14 146 15 27 8 35 -23 24 -35 -14 -963
-14 -997 -1 -36 14 -47 14 -47 0z"/>
<path d="M5525 3070 c-4 -7 1 -18 13 -26 11 -8 30 -29 41 -48 21 -33 21 -42
21 -710 0 -709 -1 -719 -43 -755 -28 -23 -20 -34 21 -26 20 4 263 7 539 7
l503 -1 -17 32 c-13 24 -18 60 -19 142 -2 101 -3 110 -20 106 -18 -4 -654 -18
-657 -14 -1 1 -1 92 1 203 l3 201 262 -6 c144 -3 271 -8 283 -10 20 -4 20 -1
20 138 l-1 142 -285 -3 -285 -4 3 179 3 178 82 -2 c45 -2 188 -5 317 -7 129
-2 244 -6 254 -8 19 -3 20 4 21 117 1 93 6 128 19 154 l18 34 -39 -9 c-49 -12
-978 -12 -1019 0 -22 5 -34 4 -39 -4z"/>
<path d="M7138 3027 l37 -38 5 -677 c3 -372 2 -692 -2 -711 -4 -19 -16 -47
-27 -62 -12 -16 -21 -29 -21 -31 0 -2 97 -3 215 -3 118 0 215 1 215 2 0 1 -15
23 -32 48 l-33 46 -4 220 -3 219 138 0 c88 0 162 6 202 15 306 72 483 335 421
627 -38 176 -197 330 -379 367 -32 7 -202 12 -412 14 l-357 2 37 -38z m672
-261 c86 -45 132 -116 131 -206 0 -103 -44 -170 -143 -221 -40 -20 -60 -23
-228 -33 l-75 -4 0 245 0 245 140 -4 c110 -3 147 -8 175 -22z"/>
<path d="M3485 2452 c-64 -15 -104 -80 -85 -138 32 -96 181 -100 225 -7 15 31
15 36 -2 70 -28 56 -86 88 -138 75z"/>
</g>
</svg>
